<svg width="21" height="21" viewBox="0 0 21 21" fill="none" xmlns="http://www.w3.org/2000/svg">
<g clip-path="url(#clip0_2045_8)">
<path d="M8.95312 6.03125H12.0469C12.1414 6.03125 12.2188 6.10859 12.2188 6.20312V7.0625H8.78125V6.20312C8.78125 6.10859 8.85859 6.03125 8.95312 6.03125ZM7.75 6.20312V7.0625H6.375C5.6166 7.0625 5 7.6791 5 8.4375V13.9375C5 14.6959 5.6166 15.3125 6.375 15.3125H14.625C15.3834 15.3125 16 14.6959 16 13.9375V8.4375C16 7.6791 15.3834 7.0625 14.625 7.0625H13.25V6.20312C13.25 5.53926 12.7107 5 12.0469 5H8.95312C8.28926 5 7.75 5.53926 7.75 6.20312ZM9.8125 9.46875C9.8125 9.27969 9.96719 9.125 10.1562 9.125H10.8438C11.0328 9.125 11.1875 9.27969 11.1875 9.46875V10.5H12.2188C12.4078 10.5 12.5625 10.6547 12.5625 10.8438V11.5312C12.5625 11.7203 12.4078 11.875 12.2188 11.875H11.1875V12.9062C11.1875 13.0953 11.0328 13.25 10.8438 13.25H10.1562C9.96719 13.25 9.8125 13.0953 9.8125 12.9062V11.875H8.78125C8.59219 11.875 8.4375 11.7203 8.4375 11.5312V10.8438C8.4375 10.6547 8.59219 10.5 8.78125 10.5H9.8125V9.46875Z" fill="white"/>
</g>
<circle cx="10.5" cy="10.5" r="10" stroke="white"/>
<defs>
<clipPath id="clip0_2045_8">
<rect width="11" height="11" fill="white" transform="translate(5 5)"/>
</clipPath>
</defs>
</svg>
